<mxfile host="drawio-plugin" agent="Mozilla/5.0 (Windows NT 10.0; Win64; x64) AppleWebKit/537.36 (KHTML, like Gecko) Chrome/122.0.0.0 Safari/537.36" modified="2025-01-23T03:38:59.708Z" version="22.1.22" etag="SwJvm7iv-CN1AjjRP9LC" type="embed">
  <diagram name="第 1 页" id="sVLTRCgwYwxQZRJO-NOB">
    <mxGraphModel dx="922" dy="1575" grid="1" gridSize="10" guides="1" tooltips="1" connect="1" arrows="1" fold="1" page="1" pageScale="1" pageWidth="1169" pageHeight="827" math="0" shadow="0">
      <root>
        <mxCell id="0" />
        <mxCell id="1" parent="0" />
        <mxCell id="Qy4yuDsx81ciZfSMfssF-40" value="" style="rounded=0;whiteSpace=wrap;html=1;dashed=1;fontFamily=Lucida Console;" parent="1" vertex="1">
          <mxGeometry x="950" y="-250" width="240" height="210" as="geometry" />
        </mxCell>
        <mxCell id="Qy4yuDsx81ciZfSMfssF-30" value="" style="rounded=0;whiteSpace=wrap;html=1;dashed=1;fontFamily=Lucida Console;" parent="1" vertex="1">
          <mxGeometry x="950" y="-810" width="290" height="280" as="geometry" />
        </mxCell>
        <mxCell id="Qy4yuDsx81ciZfSMfssF-20" value="" style="rounded=0;whiteSpace=wrap;html=1;dashed=1;fontFamily=Lucida Console;" parent="1" vertex="1">
          <mxGeometry x="505" y="-570" width="305" height="390" as="geometry" />
        </mxCell>
        <mxCell id="Qy4yuDsx81ciZfSMfssF-2" style="edgeStyle=elbowEdgeStyle;rounded=1;orthogonalLoop=1;jettySize=auto;html=1;endArrow=block;endFill=0;fontFamily=Lucida Console;curved=0;" parent="1" source="TWgiSMMmKVXP55YYkQm_-1" target="Qy4yuDsx81ciZfSMfssF-1" edge="1">
          <mxGeometry relative="1" as="geometry" />
        </mxCell>
        <mxCell id="TWgiSMMmKVXP55YYkQm_-1" value="main()" style="rounded=0;whiteSpace=wrap;html=1;fontFamily=Lucida Console;" parent="1" vertex="1">
          <mxGeometry x="40" y="-395" width="80" height="40" as="geometry" />
        </mxCell>
        <mxCell id="Qy4yuDsx81ciZfSMfssF-4" style="edgeStyle=elbowEdgeStyle;rounded=1;orthogonalLoop=1;jettySize=auto;html=1;endArrow=block;endFill=0;fontFamily=Lucida Console;curved=0;" parent="1" source="Qy4yuDsx81ciZfSMfssF-1" target="Qy4yuDsx81ciZfSMfssF-3" edge="1">
          <mxGeometry relative="1" as="geometry" />
        </mxCell>
        <mxCell id="Qy4yuDsx81ciZfSMfssF-1" value="Renderer&lt;div&gt;render_loop()&lt;/div&gt;" style="rounded=0;whiteSpace=wrap;html=1;fontFamily=Lucida Console;" parent="1" vertex="1">
          <mxGeometry x="160" y="-395" width="120" height="40" as="geometry" />
        </mxCell>
        <mxCell id="Qy4yuDsx81ciZfSMfssF-21" style="edgeStyle=elbowEdgeStyle;rounded=1;orthogonalLoop=1;jettySize=auto;html=1;entryX=0;entryY=0.5;entryDx=0;entryDy=0;endArrow=block;endFill=0;fontFamily=Lucida Console;curved=0;" parent="1" source="Qy4yuDsx81ciZfSMfssF-3" target="Qy4yuDsx81ciZfSMfssF-20" edge="1">
          <mxGeometry relative="1" as="geometry" />
        </mxCell>
        <mxCell id="Qy4yuDsx81ciZfSMfssF-3" value="WindowSystem&lt;div&gt;render_loop()&lt;/div&gt;" style="rounded=0;whiteSpace=wrap;html=1;fontFamily=Lucida Console;" parent="1" vertex="1">
          <mxGeometry x="320" y="-395" width="120" height="40" as="geometry" />
        </mxCell>
        <mxCell id="Qy4yuDsx81ciZfSMfssF-25" style="edgeStyle=elbowEdgeStyle;rounded=1;orthogonalLoop=1;jettySize=auto;html=1;endArrow=block;endFill=0;entryX=0;entryY=0.5;entryDx=0;entryDy=0;fontFamily=Lucida Console;curved=0;" parent="1" source="Qy4yuDsx81ciZfSMfssF-5" target="Qy4yuDsx81ciZfSMfssF-30" edge="1">
          <mxGeometry relative="1" as="geometry">
            <mxPoint x="910" y="-550" as="targetPoint" />
          </mxGeometry>
        </mxCell>
        <mxCell id="Qy4yuDsx81ciZfSMfssF-5" value="RenderContext&lt;div&gt;&lt;span style=&quot;background-color: initial;&quot;&gt;acquire_frame()&lt;/span&gt;&lt;/div&gt;" style="rounded=0;whiteSpace=wrap;html=1;fontFamily=Lucida Console;" parent="1" vertex="1">
          <mxGeometry x="532.5" y="-520" width="250" height="40" as="geometry" />
        </mxCell>
        <mxCell id="Qy4yuDsx81ciZfSMfssF-51" style="edgeStyle=elbowEdgeStyle;rounded=1;orthogonalLoop=1;jettySize=auto;html=1;entryX=0;entryY=0.5;entryDx=0;entryDy=0;fontFamily=Lucida Console;curved=0;endArrow=block;endFill=0;" parent="1" source="Qy4yuDsx81ciZfSMfssF-9" target="Qy4yuDsx81ciZfSMfssF-47" edge="1">
          <mxGeometry relative="1" as="geometry">
            <mxPoint x="1250" y="-340" as="targetPoint" />
          </mxGeometry>
        </mxCell>
        <mxCell id="Qy4yuDsx81ciZfSMfssF-9" value="UI pass" style="rounded=0;whiteSpace=wrap;html=1;fontFamily=Lucida Console;" parent="1" vertex="1">
          <mxGeometry x="532.5" y="-360" width="250" height="40" as="geometry" />
        </mxCell>
        <mxCell id="Qy4yuDsx81ciZfSMfssF-42" style="edgeStyle=elbowEdgeStyle;rounded=1;orthogonalLoop=1;jettySize=auto;html=1;fontFamily=Lucida Console;entryX=0;entryY=0.5;entryDx=0;entryDy=0;curved=0;endArrow=block;endFill=0;" parent="1" source="Qy4yuDsx81ciZfSMfssF-10" target="Qy4yuDsx81ciZfSMfssF-43" edge="1">
          <mxGeometry relative="1" as="geometry">
            <mxPoint x="980" y="-410" as="targetPoint" />
          </mxGeometry>
        </mxCell>
        <mxCell id="Qy4yuDsx81ciZfSMfssF-10" value="main pass" style="rounded=0;whiteSpace=wrap;html=1;fontFamily=Lucida Console;" parent="1" vertex="1">
          <mxGeometry x="532.5" y="-440" width="250" height="40" as="geometry" />
        </mxCell>
        <mxCell id="Qy4yuDsx81ciZfSMfssF-41" style="edgeStyle=elbowEdgeStyle;rounded=1;orthogonalLoop=1;jettySize=auto;html=1;entryX=0;entryY=0.5;entryDx=0;entryDy=0;fontFamily=Lucida Console;curved=0;endArrow=block;endFill=0;" parent="1" source="Qy4yuDsx81ciZfSMfssF-11" target="Qy4yuDsx81ciZfSMfssF-40" edge="1">
          <mxGeometry relative="1" as="geometry" />
        </mxCell>
        <mxCell id="Qy4yuDsx81ciZfSMfssF-11" value="RenderContext&lt;div&gt;submit_frame()&lt;/div&gt;" style="rounded=0;whiteSpace=wrap;html=1;fontFamily=Lucida Console;" parent="1" vertex="1">
          <mxGeometry x="532.5" y="-280" width="250" height="40" as="geometry" />
        </mxCell>
        <mxCell id="Qy4yuDsx81ciZfSMfssF-26" value="wait_for_fence()" style="rounded=0;whiteSpace=wrap;html=1;fontFamily=Lucida Console;" parent="1" vertex="1">
          <mxGeometry x="967.5" y="-795" width="137.5" height="35" as="geometry" />
        </mxCell>
        <mxCell id="Qy4yuDsx81ciZfSMfssF-27" value="Swapchain::acquire_next_frame()&lt;div&gt;signal: present_semaphore&lt;/div&gt;" style="rounded=0;whiteSpace=wrap;html=1;fontFamily=Lucida Console;" parent="1" vertex="1">
          <mxGeometry x="967.5" y="-750" width="250" height="40" as="geometry" />
        </mxCell>
        <mxCell id="Qy4yuDsx81ciZfSMfssF-28" value="color attach&lt;div&gt;layout transition&lt;/div&gt;" style="rounded=0;whiteSpace=wrap;html=1;fontFamily=Lucida Console;" parent="1" vertex="1">
          <mxGeometry x="967.5" y="-700" width="157.5" height="40" as="geometry" />
        </mxCell>
        <mxCell id="Qy4yuDsx81ciZfSMfssF-31" value="&lt;div&gt;&lt;br&gt;&lt;/div&gt;" style="rounded=0;whiteSpace=wrap;html=1;fontFamily=Lucida Console;" parent="1" vertex="1">
          <mxGeometry x="967.5" y="-652" width="210" height="110" as="geometry" />
        </mxCell>
        <mxCell id="Qy4yuDsx81ciZfSMfssF-32" value="pipelien barrier&lt;div&gt;color attch&lt;/div&gt;&lt;div&gt;layout transition&lt;/div&gt;" style="rounded=0;whiteSpace=wrap;html=1;fontFamily=Lucida Console;" parent="1" vertex="1">
          <mxGeometry x="977.5" y="-612" width="190" height="60" as="geometry" />
        </mxCell>
        <mxCell id="Qy4yuDsx81ciZfSMfssF-33" value="&lt;div style=&quot;forced-color-adjust: none; color: rgb(0, 0, 0); font-size: 12px; font-style: normal; font-variant-ligatures: normal; font-variant-caps: normal; font-weight: 400; letter-spacing: normal; orphans: 2; text-align: center; text-indent: 0px; text-transform: none; widows: 2; word-spacing: 0px; -webkit-text-stroke-width: 0px; white-space: normal; background-color: rgb(251, 251, 251); text-decoration-thickness: initial; text-decoration-style: initial; text-decoration-color: initial;&quot;&gt;cmd batch&lt;/div&gt;&lt;div style=&quot;forced-color-adjust: none; color: rgb(0, 0, 0); font-size: 12px; font-style: normal; font-variant-ligatures: normal; font-variant-caps: normal; font-weight: 400; letter-spacing: normal; orphans: 2; text-align: center; text-indent: 0px; text-transform: none; widows: 2; word-spacing: 0px; -webkit-text-stroke-width: 0px; white-space: normal; background-color: rgb(251, 251, 251); text-decoration-thickness: initial; text-decoration-style: initial; text-decoration-color: initial;&quot;&gt;&lt;span style=&quot;forced-color-adjust: none; background-color: initial;&quot;&gt;wait: present semaphore&lt;/span&gt;&lt;/div&gt;" style="text;whiteSpace=wrap;html=1;fontFamily=Lucida Console;" parent="1" vertex="1">
          <mxGeometry x="985" y="-652" width="170" height="40" as="geometry" />
        </mxCell>
        <mxCell id="Qy4yuDsx81ciZfSMfssF-35" value="&lt;div&gt;&lt;br&gt;&lt;/div&gt;" style="rounded=0;whiteSpace=wrap;html=1;fontFamily=Lucida Console;" parent="1" vertex="1">
          <mxGeometry x="960" y="-230" width="190" height="120" as="geometry" />
        </mxCell>
        <mxCell id="Qy4yuDsx81ciZfSMfssF-36" value="pipelien barrier&lt;div&gt;color attch&lt;/div&gt;&lt;div&gt;layout transition&lt;/div&gt;" style="rounded=0;whiteSpace=wrap;html=1;fontFamily=Lucida Console;" parent="1" vertex="1">
          <mxGeometry x="983.75" y="-170" width="142.5" height="50" as="geometry" />
        </mxCell>
        <mxCell id="Qy4yuDsx81ciZfSMfssF-37" value="&lt;div style=&quot;forced-color-adjust: none; color: rgb(0, 0, 0); font-size: 12px; font-style: normal; font-variant-ligatures: normal; font-variant-caps: normal; font-weight: 400; letter-spacing: normal; orphans: 2; text-align: center; text-indent: 0px; text-transform: none; widows: 2; word-spacing: 0px; -webkit-text-stroke-width: 0px; white-space: normal; background-color: rgb(251, 251, 251); text-decoration-thickness: initial; text-decoration-style: initial; text-decoration-color: initial;&quot;&gt;cmd batch&lt;/div&gt;&lt;div style=&quot;forced-color-adjust: none; color: rgb(0, 0, 0); font-size: 12px; font-style: normal; font-variant-ligatures: normal; font-variant-caps: normal; font-weight: 400; letter-spacing: normal; orphans: 2; text-align: center; text-indent: 0px; text-transform: none; widows: 2; word-spacing: 0px; -webkit-text-stroke-width: 0px; white-space: normal; background-color: rgb(251, 251, 251); text-decoration-thickness: initial; text-decoration-style: initial; text-decoration-color: initial;&quot;&gt;&lt;span style=&quot;forced-color-adjust: none; background-color: initial;&quot;&gt;signal: render semaphore&lt;/span&gt;&lt;/div&gt;&lt;div style=&quot;forced-color-adjust: none; color: rgb(0, 0, 0); font-size: 12px; font-style: normal; font-variant-ligatures: normal; font-variant-caps: normal; font-weight: 400; letter-spacing: normal; orphans: 2; text-align: center; text-indent: 0px; text-transform: none; widows: 2; word-spacing: 0px; -webkit-text-stroke-width: 0px; white-space: normal; background-color: rgb(251, 251, 251); text-decoration-thickness: initial; text-decoration-style: initial; text-decoration-color: initial;&quot;&gt;&lt;span style=&quot;forced-color-adjust: none; background-color: initial;&quot;&gt;fence&lt;/span&gt;&lt;/div&gt;" style="text;whiteSpace=wrap;html=1;fontFamily=Lucida Console;" parent="1" vertex="1">
          <mxGeometry x="962.5" y="-230" width="187.5" height="50" as="geometry" />
        </mxCell>
        <mxCell id="Qy4yuDsx81ciZfSMfssF-39" value="Swapchain::submit_frame()&lt;div&gt;wait: render semaphore&lt;/div&gt;" style="rounded=0;whiteSpace=wrap;html=1;fontFamily=Lucida Console;" parent="1" vertex="1">
          <mxGeometry x="960" y="-100" width="220" height="45" as="geometry" />
        </mxCell>
        <mxCell id="Qy4yuDsx81ciZfSMfssF-43" value="&lt;div&gt;&lt;span style=&quot;text-wrap: nowrap;&quot;&gt;cmd batch&lt;/span&gt;&lt;br&gt;&lt;/div&gt;" style="rounded=0;whiteSpace=wrap;html=1;fontFamily=Lucida Console;" parent="1" vertex="1">
          <mxGeometry x="950" y="-500" width="190" height="50" as="geometry" />
        </mxCell>
        <mxCell id="Qy4yuDsx81ciZfSMfssF-47" value="&lt;div&gt;&lt;br&gt;&lt;/div&gt;" style="rounded=0;whiteSpace=wrap;html=1;fontFamily=Lucida Console;" parent="1" vertex="1">
          <mxGeometry x="950" y="-432" width="180" height="152" as="geometry" />
        </mxCell>
        <mxCell id="Qy4yuDsx81ciZfSMfssF-48" value="cmd batch" style="text;html=1;align=center;verticalAlign=middle;resizable=0;points=[];autosize=1;strokeColor=none;fillColor=none;fontFamily=Lucida Console;" parent="1" vertex="1">
          <mxGeometry x="960" y="-432" width="90" height="30" as="geometry" />
        </mxCell>
        <mxCell id="Qy4yuDsx81ciZfSMfssF-49" value="&lt;div&gt;&lt;span style=&quot;text-wrap: nowrap;&quot;&gt;pipeline barrier&lt;/span&gt;&lt;br&gt;&lt;/div&gt;&lt;div&gt;&lt;span style=&quot;text-wrap: nowrap;&quot;&gt;color attach&lt;/span&gt;&lt;/div&gt;&lt;div&gt;&lt;span style=&quot;text-wrap: nowrap;&quot;&gt;mem dependency&lt;/span&gt;&lt;/div&gt;" style="rounded=0;whiteSpace=wrap;html=1;fontFamily=Lucida Console;" parent="1" vertex="1">
          <mxGeometry x="962.5" y="-350" width="155" height="50" as="geometry" />
        </mxCell>
        <mxCell id="Qy4yuDsx81ciZfSMfssF-50" value="&lt;div&gt;&lt;span style=&quot;text-wrap: nowrap;&quot;&gt;draw cmd&lt;/span&gt;&lt;/div&gt;" style="rounded=0;whiteSpace=wrap;html=1;fontFamily=Lucida Console;" parent="1" vertex="1">
          <mxGeometry x="962.5" y="-400" width="85" height="35" as="geometry" />
        </mxCell>
      </root>
    </mxGraphModel>
  </diagram>
</mxfile>
